<?xml version="1.0" encoding="utf-8"?>
<!-- Generator: Adobe Illustrator 16.0.4, SVG Export Plug-In . SVG Version: 6.00 Build 0)  -->
<!DOCTYPE svg PUBLIC "-//W3C//DTD SVG 1.1//EN" "http://www.w3.org/Graphics/SVG/1.1/DTD/svg11.dtd">
<svg version="1.1" id="Layer_1" xmlns="http://www.w3.org/2000/svg" xmlns:xlink="http://www.w3.org/1999/xlink" x="0px" y="0px"
	 width="353.191px" height="373.03px" viewBox="-76.344 -101.961 353.191 373.03"
	 enable-background="new -76.344 -101.961 353.191 373.03" xml:space="preserve">
<g>
	<g>
		<g>
			
				<image overflow="visible" enable-background="new    " width="467" height="408" xlink:href="928FA51A4948152A.png"  transform="matrix(0.5278 0 0 0.5278 -123.1511 -30.3313)">
			</image>
		</g>
		<g>
			
				<image overflow="visible" enable-background="new    " width="358" height="354" xlink:href="928FA51A4948152E.png"  transform="matrix(0.5243 0 0 0.5243 -94.0613 -1.3743)">
			</image>
		</g>
		<g>
			<g>
				<g enable-background="new    ">
					<g enable-background="new    ">
						<g>
							<defs>
								<path id="SVGID_1_" d="M138.878,60.085l-23.592-23.347c3.268-0.282,5.935-3.157,5.943-6.436l23.604,23.345
									C144.814,56.923,142.148,59.79,138.878,60.085z"/>
							</defs>
							<clipPath id="SVGID_2_">
								<use xlink:href="#SVGID_1_"  overflow="visible"/>
							</clipPath>
							<g clip-path="url(#SVGID_2_)" enable-background="new    ">
								<path fill="#BB3727" d="M138.878,60.085l-23.592-23.347c0.1-0.004,0.208-0.03,0.306-0.03l23.596,23.34
									C139.084,60.063,138.99,60.072,138.878,60.085"/>
								<path fill="#BD3827" d="M139.186,60.048l-23.594-23.34c0.299-0.043,0.598-0.111,0.879-0.184l23.609,23.323
									C139.79,59.942,139.493,60.002,139.186,60.048"/>
								<path fill="#C23A28" d="M140.08,59.846l-23.609-23.323c0.444-0.141,0.878-0.301,1.271-0.518l23.603,23.323
									C140.946,59.547,140.514,59.734,140.08,59.846"/>
								<path fill="#BD3827" d="M141.344,59.328l-23.603-23.321c0.272-0.163,0.533-0.323,0.782-0.5l23.596,23.338
									C141.879,59.021,141.613,59.187,141.344,59.328"/>
								<path fill="#BB3727" d="M142.119,58.841l-23.596-23.334c0.158-0.124,0.312-0.238,0.455-0.381l23.596,23.36
									C142.432,58.598,142.284,58.728,142.119,58.841"/>
								<path fill="#B63527" d="M142.574,58.486l-23.596-23.36c0.132-0.089,0.238-0.212,0.347-0.314l23.604,23.33
									C142.816,58.254,142.7,58.37,142.574,58.486"/>
								<path fill="#B43327" d="M142.93,58.141l-23.604-23.33c0.1-0.098,0.206-0.208,0.29-0.312l23.611,23.33
									C143.121,57.939,143.034,58.039,142.93,58.141"/>
								<path fill="#B13126" d="M143.227,57.824l-23.611-23.326c0.085-0.108,0.167-0.201,0.245-0.308l23.607,23.334
									C143.381,57.627,143.305,57.722,143.227,57.824"/>
								<path fill="#AE3125" d="M143.468,57.523l-23.607-23.332c0.078-0.095,0.149-0.21,0.221-0.301l23.605,23.345
									C143.615,57.337,143.543,57.43,143.468,57.523"/>
								<path fill="#AA3025" d="M143.687,57.235L120.081,33.89c0.069-0.097,0.128-0.188,0.193-0.299l23.596,23.347
									C143.812,57.042,143.756,57.135,143.687,57.235"/>
								<path fill="#A72D24" d="M143.87,56.936l-23.596-23.345c0.054-0.095,0.112-0.187,0.169-0.286l23.604,23.336
									C143.99,56.737,143.929,56.851,143.87,56.936"/>
								<path fill="#A22C23" d="M144.048,56.639l-23.604-23.336c0.054-0.102,0.112-0.197,0.147-0.301l23.611,23.334
									C144.153,56.433,144.096,56.548,144.048,56.639"/>
								<path fill="#9D2C22" d="M144.202,56.338l-23.611-23.334c0.054-0.102,0.104-0.212,0.149-0.312l23.588,23.345
									C144.289,56.145,144.247,56.256,144.202,56.338"/>
								<path fill="#9A2C21" d="M144.33,56.037l-23.588-23.345c0.041-0.091,0.082-0.206,0.119-0.31l23.605,23.343
									C144.43,55.835,144.389,55.924,144.33,56.037"/>
								<path fill="#972920" d="M144.464,55.725l-23.603-23.343c0.044-0.113,0.078-0.224,0.119-0.328l23.595,23.341
									C144.53,55.508,144.499,55.62,144.464,55.725"/>
								<path fill="#942820" d="M144.573,55.397l-23.594-23.343c0.018-0.106,0.059-0.223,0.08-0.34l23.605,23.323
									C144.627,55.163,144.599,55.287,144.573,55.397"/>
								<path fill="#90261E" d="M144.664,55.038l-23.605-23.323c0.021-0.124,0.057-0.245,0.078-0.381l23.597,23.34
									C144.722,54.806,144.692,54.919,144.664,55.038"/>
								<path fill="#8D241D" d="M144.734,54.674l-23.595-23.34c0.028-0.137,0.035-0.267,0.063-0.429l23.603,23.347
									C144.785,54.39,144.764,54.544,144.734,54.674"/>
								<path fill="#8A241C" d="M144.805,54.249l-23.603-23.347c0.015-0.139,0.019-0.299,0.019-0.461l23.612,23.332
									C144.818,53.946,144.814,54.106,144.805,54.249"/>
								<path fill="#87241B" d="M144.83,53.772L121.221,30.44c0.009-0.052,0.009-0.089,0.009-0.136l23.604,23.345
									C144.818,53.7,144.83,53.733,144.83,53.772"/>
							</g>
						</g>
					</g>
					<g>
						<g>
							<polygon fill="#8A241C" points="144.846,45.427 121.237,22.093 156.931,18.957 180.526,42.311 							"/>
						</g>
						<g>
							<polygon fill="#8A241C" points="144.846,45.427 121.237,22.093 156.931,18.957 180.526,42.311 							"/>
						</g>
					</g>
					<g>
						<polygon fill="#8A241C" points="144.83,53.646 121.23,30.302 121.237,22.093 144.846,45.427 						"/>
					</g>
					<g>
						<polygon fill="#C33A28" points="50.957,67.788 27.363,44.439 115.286,36.738 138.878,60.085 						"/>
					</g>
					<g enable-background="new    ">
						<g>
							<defs>
								<path id="SVGID_3_" d="M46.632,66.28c-0.362-0.353-0.828-0.815-1.189-1.172c-7.459-7.396-14.937-14.774-22.413-22.181
									c1.077,1.075,2.615,1.658,4.334,1.51l23.594,23.352C49.237,67.942,47.709,67.34,46.632,66.28z"/>
							</defs>
							<clipPath id="SVGID_4_">
								<use xlink:href="#SVGID_3_"  overflow="visible"/>
							</clipPath>
							<g clip-path="url(#SVGID_4_)" enable-background="new    ">
								<path fill="#942820" d="M46.632,66.28L23.029,42.927c0.071,0.095,0.156,0.154,0.245,0.214L46.87,66.51
									C46.785,66.414,46.71,66.354,46.632,66.28"/>
								<path fill="#972920" d="M46.87,66.51L23.274,43.143c0.117,0.124,0.243,0.221,0.366,0.32l23.609,23.343
									C47.115,66.698,46.993,66.603,46.87,66.51"/>
								<path fill="#9A2C21" d="M47.247,66.806L23.638,43.464c0.115,0.076,0.238,0.15,0.364,0.221L47.6,67.03
									C47.486,66.96,47.364,66.876,47.247,66.806"/>
								<path fill="#9D2C22" d="M47.602,67.028L24.004,43.685c0.117,0.084,0.225,0.139,0.353,0.197L47.96,67.22
									C47.839,67.177,47.718,67.11,47.602,67.028"/>
								<path fill="#A22C23" d="M47.958,67.22L24.355,43.882c0.115,0.054,0.228,0.113,0.347,0.175l23.592,23.326
									C48.188,67.34,48.075,67.283,47.958,67.22"/>
								<path fill="#A72D24" d="M48.296,67.383L24.704,44.057c0.113,0.031,0.238,0.087,0.362,0.126l23.588,23.338
									C48.539,67.478,48.426,67.444,48.296,67.383"/>
								<path fill="#AA3025" d="M48.654,67.519L25.066,44.181c0.111,0.035,0.234,0.076,0.358,0.113l23.598,23.338
									C48.89,67.597,48.77,67.556,48.654,67.519"/>
								<path fill="#AE3125" d="M49.022,67.632L25.424,44.296c0.112,0.028,0.245,0.047,0.375,0.076l23.597,23.334
									C49.26,67.686,49.133,67.656,49.022,67.632"/>
								<path fill="#B13126" d="M49.395,67.704L25.798,44.369c0.119,0.018,0.26,0.039,0.388,0.059l23.601,23.334
									C49.661,67.762,49.522,67.74,49.395,67.704"/>
								<path fill="#B43327" d="M49.787,67.762L26.186,44.428c0.143,0.015,0.279,0.015,0.429,0.03l23.596,23.343
									C50.069,67.799,49.936,67.788,49.787,67.762"/>
								<path fill="#B63527" d="M50.214,67.799L26.615,44.458c0.154,0.016,0.31,0.016,0.466,0.016l23.609,23.325
									C50.526,67.799,50.378,67.805,50.214,67.799"/>
								<path fill="#BB3727" d="M50.691,67.799L27.083,44.474c0.089-0.028,0.184-0.028,0.28-0.035l23.594,23.35
									C50.864,67.799,50.768,67.799,50.691,67.799"/>
							</g>
						</g>
					</g>
					<g enable-background="new    ">
						<g>
							<defs>
								<path id="SVGID_5_" d="M12.3,103.153l-23.596-23.347c-1.883-1.84-3.023-4.46-3.019-7.407L9.295,95.725
									C9.288,98.705,10.428,101.279,12.3,103.153z"/>
							</defs>
							<clipPath id="SVGID_6_">
								<use xlink:href="#SVGID_5_"  overflow="visible"/>
							</clipPath>
							<g clip-path="url(#SVGID_6_)" enable-background="new    ">
								<path fill="#82211A" d="M12.3,103.153l-23.596-23.347c-1.69-1.658-2.78-3.936-2.978-6.531l23.603,23.35
									C9.524,99.219,10.621,101.478,12.3,103.153"/>
								<path fill="#87241B" d="M9.329,96.625l-23.603-23.35c-0.026-0.273-0.035-0.581-0.041-0.875L9.295,95.725
									C9.292,96.042,9.305,96.323,9.329,96.625"/>
							</g>
						</g>
					</g>
					<g>
						<path fill="#D73D27" d="M180.526,42.311l-0.063,38.427c-0.013,6.23-5.09,11.741-11.368,12.293L20.6,106.047
							c-6.25,0.546-11.329-4.083-11.305-10.321L9.36,57.298l35.712-3.138l-0.018,8.232c0,3.264,2.637,5.678,5.905,5.396
							l87.921-7.704c3.272-0.295,5.936-3.162,5.955-6.438l0.015-8.219L180.526,42.311z"/>
					</g>
					<g>
						<g>
							<polygon fill="#8A241C" points="9.36,57.298 -14.23,33.962 21.471,30.817 45.072,54.16 							"/>
						</g>
						<g>
							<polygon fill="#8A241C" points="9.36,57.298 -14.23,33.962 21.471,30.817 45.072,54.16 							"/>
						</g>
					</g>
					<g>
						<polygon fill="#8A241C" points="9.295,95.725 -14.315,72.4 -14.23,33.962 9.36,57.298 						"/>
					</g>
				</g>
				<g enable-background="new    ">
					<g>
						<g>
							<polygon fill="#E5574F" points="180.322,-22.551 180.547,34.02 144.864,37.143 144.634,-19.418 							"/>
						</g>
						<g>
							<polygon fill="#E1493B" points="180.322,-22.551 180.547,34.02 144.864,37.143 144.634,-19.418 							"/>
						</g>
					</g>
					<g>
						<polygon fill="#8A241C" points="144.864,37.143 121.272,13.802 121.044,-42.765 144.634,-19.418 						"/>
					</g>
					<g>
						<g>
							<polygon fill="#8A241C" points="144.634,-19.418 121.044,-42.765 156.725,-45.881 180.322,-22.551 							"/>
						</g>
						<g>
							<polygon fill="#8A241C" points="144.634,-19.418 121.044,-42.765 156.725,-45.881 180.322,-22.551 							"/>
						</g>
					</g>
				</g>
				<g enable-background="new    ">
					<g>
						<g>
							<polygon fill="#E5574F" points="44.865,-10.682 45.082,45.889 9.384,49.011 9.158,-7.558 							"/>
						</g>
						<g>
							<polygon fill="#E1493B" points="44.865,-10.682 45.082,45.889 9.384,49.011 9.158,-7.558 							"/>
						</g>
					</g>
					<g>
						<polygon fill="#8A241C" points="9.384,49.011 -14.224,25.664 -14.438,-30.885 9.158,-7.558 						"/>
					</g>
					<g>
						<polygon fill="#8A241C" points="9.158,-7.558 -14.438,-30.885 21.26,-34.017 44.865,-10.682 						"/>
					</g>
				</g>
			</g>
			<g>
				<g enable-background="new    ">
					<g>
						<polygon fill="#8A241C" points="144.818,-27.86 121.217,-51.183 121.23,-58.291 144.83,-34.947 						"/>
					</g>
					<g enable-background="new    ">
						<g>
							<defs>
								<path id="SVGID_7_" d="M119.656-62.179c7.869,7.782,15.73,15.557,23.599,23.336c0.976,0.971,1.578,2.336,1.578,3.894
									L121.23-58.291C121.23-59.847,120.627-61.204,119.656-62.179z"/>
							</defs>
							<clipPath id="SVGID_8_">
								<use xlink:href="#SVGID_7_"  overflow="visible"/>
							</clipPath>
							<g clip-path="url(#SVGID_8_)" enable-background="new    ">
								<path fill="#87241B" d="M144.83-34.947L121.23-58.291c0-0.152-0.013-0.299-0.027-0.461l23.611,23.345
									C144.818-35.267,144.83-35.1,144.83-34.947"/>
								<path fill="#82211A" d="M144.814-35.408l-23.611-23.345c-0.094-1.37-0.666-2.56-1.546-3.426l23.599,23.336
									C144.133-37.958,144.705-36.775,144.814-35.408"/>
							</g>
						</g>
					</g>
					<g enable-background="new    ">
						<g>
							<defs>
								<path id="SVGID_9_" d="M154.003-99.017c1.573,1.545,3.151,3.107,4.718,4.652c6.302,6.23,12.593,12.443,18.881,18.671
									c-2.061-2.037-5.015-3.158-8.293-2.906l-23.603-23.316C148.983-102.203,151.943-101.078,154.003-99.017z"/>
							</defs>
							<clipPath id="SVGID_10_">
								<use xlink:href="#SVGID_9_"  overflow="visible"/>
							</clipPath>
							<g clip-path="url(#SVGID_10_)" enable-background="new    ">
								<path fill="#BB3727" d="M169.309-78.6l-23.603-23.316c0.169-0.018,0.327-0.031,0.487-0.031l23.603,23.341
									C169.627-78.607,169.465-78.6,169.309-78.6"/>
								<path fill="#B63527" d="M169.794-78.607l-23.601-23.341c0.314-0.028,0.615-0.028,0.912,0l23.593,23.33
									C170.407-78.626,170.093-78.626,169.794-78.607"/>
								<path fill="#B43327" d="M170.698-78.617l-23.593-23.33c0.277,0,0.547,0.026,0.821,0.057l23.605,23.338
									C171.255-78.6,170.98-78.607,170.698-78.617"/>
								<path fill="#B13126" d="M171.532-78.548l-23.605-23.341c0.256,0.022,0.516,0.069,0.766,0.106l23.592,23.349
									C172.044-78.486,171.788-78.522,171.532-78.548"/>
								<path fill="#AE3125" d="M172.282-78.433l-23.59-23.349c0.247,0.056,0.475,0.104,0.722,0.163l23.601,23.332
									C172.779-78.344,172.531-78.401,172.282-78.433"/>
								<path fill="#AA3025" d="M173.015-78.288l-23.601-23.332c0.235,0.056,0.463,0.139,0.688,0.212l23.607,23.332
									C173.474-78.162,173.246-78.217,173.015-78.288"/>
								<path fill="#A72D24" d="M173.708-78.076l-23.607-23.332c0.231,0.067,0.453,0.161,0.689,0.245l23.59,23.334
									C174.158-77.915,173.931-78.002,173.708-78.076"/>
								<path fill="#A22C23" d="M174.38-77.829l-23.59-23.334c0.219,0.084,0.452,0.202,0.665,0.303l23.596,23.354
									C174.832-77.63,174.62-77.734,174.38-77.829"/>
								<path fill="#9D2C22" d="M175.051-77.506l-23.596-23.354c0.234,0.13,0.453,0.254,0.672,0.371l23.599,23.347
									C175.504-77.272,175.285-77.404,175.051-77.506"/>
								<path fill="#9A2C21" d="M175.723-77.14l-23.598-23.347c0.24,0.158,0.477,0.303,0.695,0.47l23.596,23.33
									C176.2-76.843,175.966-77.001,175.723-77.14"/>
								<path fill="#972920" d="M176.419-76.687l-23.597-23.33c0.256,0.16,0.487,0.359,0.722,0.567l23.604,23.326
									C176.906-76.312,176.675-76.5,176.419-76.687"/>
								<path fill="#942820" d="M177.149-76.123l-23.604-23.326c0.16,0.132,0.31,0.265,0.459,0.432l23.599,23.323
									C177.454-75.831,177.31-75.969,177.149-76.123"/>
							</g>
						</g>
					</g>
					<g>
						<polygon fill="#8A241C" points="9.342,-16.078 -14.263,-39.412 -14.15,-76.713 9.446,-53.381 						"/>
					</g>
					<g>
						<polygon fill="#C33A28" points="20.805,-65.661 -2.791,-89.008 145.706,-101.917 169.309,-78.6 						"/>
					</g>
					<g>
						<g>
							<path fill="#E5574F" d="M20.805-65.661L169.309-78.6c6.261-0.507,11.32,4.094,11.31,10.352l-0.128,37.292L144.82-27.86
								l0.014-7.086c0-3.263-2.633-5.675-5.895-5.391l-87.936,7.639c-3.264,0.292-5.94,3.17-5.94,6.425l-0.006,7.086l-35.712,3.11
								l0.104-37.303C9.459-59.622,14.554-65.109,20.805-65.661z"/>
						</g>
						<g>
							<path fill="#E5574F" d="M20.805-65.661L169.309-78.6c6.261-0.507,11.32,4.094,11.31,10.352l-0.128,37.292L144.82-27.86
								l0.014-7.086c0-3.263-2.633-5.675-5.895-5.391l-87.936,7.639c-3.264,0.292-5.94,3.17-5.94,6.425l-0.006,7.086l-35.712,3.11
								l0.104-37.303C9.459-59.622,14.554-65.109,20.805-65.661z"/>
						</g>
					</g>
					<g enable-background="new    ">
						<g>
							<defs>
								<path id="SVGID_11_" d="M9.446-53.381L-14.15-76.713c0.009-6.241,5.095-11.756,11.359-12.295l23.596,23.347
									C14.554-65.109,9.459-59.622,9.446-53.381z"/>
							</defs>
							<clipPath id="SVGID_12_">
								<use xlink:href="#SVGID_11_"  overflow="visible"/>
							</clipPath>
							<g clip-path="url(#SVGID_12_)" enable-background="new    ">
								<path fill="#87241B" d="M9.446-53.381L-14.15-76.713c0-0.087,0-0.171,0-0.258L9.453-53.624
									C9.446-53.531,9.453-53.457,9.446-53.381"/>
								<path fill="#8A241C" d="M9.453-53.621L-14.15-76.97c0.009-0.293,0.024-0.603,0.065-0.915L9.513-54.534
									C9.472-54.243,9.459-53.927,9.453-53.621"/>
								<path fill="#8D241D" d="M9.513-54.534l-23.599-23.349c0.02-0.258,0.063-0.535,0.108-0.793l23.59,23.33
									C9.572-55.075,9.537-54.815,9.513-54.534"/>
								<path fill="#90261E" d="M9.613-55.346l-23.59-23.332c0.039-0.245,0.084-0.485,0.147-0.713L9.769-56.049
									C9.704-55.829,9.665-55.574,9.613-55.346"/>
								<path fill="#942820" d="M9.769-56.049l-23.599-23.343c0.048-0.225,0.11-0.44,0.173-0.659L9.947-56.72
									C9.878-56.495,9.825-56.278,9.769-56.049"/>
								<path fill="#972920" d="M9.947-56.718L-13.656-80.05c0.061-0.214,0.13-0.414,0.214-0.646l23.597,23.36
									C10.068-57.134,10.001-56.92,9.947-56.718"/>
								<path fill="#9A2C21" d="M10.155-57.333l-23.597-23.36c0.069-0.19,0.143-0.388,0.232-0.589l23.596,23.36
									C10.304-57.749,10.216-57.531,10.155-57.333"/>
								<path fill="#9D2C22" d="M10.386-57.923l-23.596-23.36c0.078-0.202,0.163-0.396,0.262-0.574l23.59,23.338
									C10.553-58.339,10.46-58.144,10.386-57.923"/>
								<path fill="#A22C23" d="M10.642-58.519l-23.59-23.338c0.089-0.204,0.18-0.395,0.297-0.579l23.594,23.343
									C10.844-58.913,10.749-58.718,10.642-58.519"/>
								<path fill="#A72D24" d="M10.944-59.093l-23.594-23.343c0.096-0.195,0.204-0.379,0.325-0.563l23.603,23.336
									C11.156-59.468,11.052-59.29,10.944-59.093"/>
								<path fill="#AA3025" d="M11.277-59.663l-23.603-23.336c0.115-0.204,0.238-0.371,0.364-0.555l23.604,23.336
									C11.513-60.04,11.39-59.858,11.277-59.663"/>
								<path fill="#AE3125" d="M11.641-60.22l-23.605-23.334c0.137-0.202,0.26-0.39,0.412-0.576l23.605,23.349
									C11.912-60.608,11.771-60.4,11.641-60.22"/>
								<path fill="#B13126" d="M12.053-60.781L-11.552-84.13c0.15-0.208,0.314-0.384,0.481-0.572l23.592,23.347
									C12.361-61.174,12.207-60.996,12.053-60.781"/>
								<path fill="#B43327" d="M12.521-61.358l-23.592-23.347c0.177-0.21,0.359-0.396,0.542-0.6L13.08-61.962
									C12.889-61.769,12.699-61.583,12.521-61.358"/>
								<path fill="#B63527" d="M13.08-61.96l-23.609-23.343c0.228-0.212,0.451-0.425,0.678-0.633l23.596,23.336
									C13.513-62.396,13.293-62.179,13.08-61.96"/>
								<path fill="#BB3727" d="M13.745-62.599L-9.851-85.935c0.273-0.239,0.572-0.481,0.865-0.696l23.599,23.343
									C14.307-63.074,14.03-62.844,13.745-62.599"/>
								<path fill="#BD3827" d="M14.613-63.288L-8.984-86.631c0.468-0.347,0.967-0.663,1.478-0.934l23.607,23.33
									C15.583-63.949,15.087-63.635,14.613-63.288"/>
								<path fill="#C23A28" d="M16.099-64.235l-23.607-23.33c0.775-0.427,1.592-0.76,2.44-1.016l23.601,23.347
									C17.683-64.991,16.862-64.649,16.099-64.235"/>
								<path fill="#BD3827" d="M18.53-65.234L-5.068-88.581c0.55-0.154,1.111-0.273,1.694-0.357l23.599,23.354
									C19.646-65.518,19.078-65.392,18.53-65.234"/>
								<path fill="#BB3727" d="M20.225-65.585L-3.374-88.939c0.193-0.024,0.384-0.057,0.583-0.067l23.596,23.347
									C20.606-65.639,20.409-65.62,20.225-65.585"/>
							</g>
						</g>
					</g>
				</g>
			</g>
		</g>
	</g>
	<g>
		<path fill="#6E6D6E" d="M-39.202,181.042c0,20.536-9.446,27.457-17.683,27.457c-9.557,0-17.243-8.679-17.243-27.35
			c0-19.324,8.676-27.455,17.793-27.455C-46.781,153.694-39.202,162.592-39.202,181.042z M-65.67,181.042
			c0,8.784,1.537,20.757,9.225,20.757c7.25,0,8.785-12.414,8.785-20.757c0-8.127-1.536-20.649-9.006-20.649
			C-64.244,160.392-65.67,172.915-65.67,181.042z"/>
		<path fill="#6E6D6E" d="M-29.876,171.05c0-8.126-0.33-12.851-0.44-16.584h7.47l0.439,6.804h0.219
			c2.964-5.599,7.138-7.577,11.31-7.577c9.337,0,15.376,9.775,15.376,27.236c0,19.77-8.126,27.568-16.473,27.568
			c-5.051,0-7.907-3.186-9.335-6.149h-0.219v26.358h-8.345V171.05H-29.876z M-21.529,188.179c0,1.541,0.11,3.079,0.44,4.395
			c1.649,7.576,5.491,8.894,7.797,8.894c7.027,0,9.335-9.663,9.335-20.318c0-10.979-2.635-20.202-9.443-20.202
			c-3.844,0-7.359,4.72-7.797,9.554c-0.221,1.207-0.33,2.638-0.33,4.065v13.613H-21.529z"/>
		<path fill="#6E6D6E" d="M19.973,181.81c0,16.365,6.479,19.768,12.521,19.768c3.736,0,6.7-0.878,8.785-1.977l1.428,6.15
			c-2.962,1.536-7.467,2.526-11.75,2.526c-12.74,0-19.33-10.437-19.33-26.688c0-17.13,7.357-27.896,18.012-27.896
			c10.761,0,15.154,11.422,15.154,23.284c0,2.087-0.111,3.515-0.219,4.835H19.973V181.81z M36.668,175.551
			c0.111-10.543-3.842-15.263-7.905-15.263c-5.604,0-8.348,8.016-8.679,15.263H36.668z"/>
		<path fill="#6E6D6E" d="M53.904,168.191c0-6.263-0.33-9.443-0.438-13.726h7.357l0.442,6.479h0.219
			c2.306-4.284,6.59-7.253,12.189-7.253c7.357,0,12.852,5.383,12.852,18.234v35.692h-8.458v-34.157
			c0-6.371-1.209-12.628-7.357-12.628c-3.515,0-6.919,2.965-7.907,8.564c-0.327,1.319-0.442,2.967-0.442,4.834v33.387h-8.456
			v-39.428H53.904z"/>
		<path fill="#CE3428" d="M96.945,198.837c1.87,1.207,5.164,2.741,8.568,2.741c4.722,0,7.797-2.965,7.797-7.687
			c0-4.065-1.426-6.807-6.807-10.432c-6.919-4.393-10.655-9.008-10.655-15.048c0-8.674,6.371-14.718,14.608-14.718
			c4.173,0,7.246,1.435,9.445,2.75l-2.199,6.364c-2.083-1.424-4.28-2.416-7.139-2.416c-4.498,0-6.809,3.294-6.809,6.815
			c0,3.508,1.322,5.488,6.59,9.111c6.154,3.951,10.984,8.783,10.984,16.145c0,10.652-7.248,15.812-16.033,15.812
			c-3.844,0-8.131-1.207-10.434-3.079L96.945,198.837z"/>
		<path fill="#CE3428" d="M140.434,142.051v12.417h10.215v6.369h-10.215v31.631c0,6.917,2.414,8.783,5.491,8.783
			c1.428,0,2.526-0.11,3.402-0.329l0.439,6.481c-1.536,0.546-3.517,0.879-6.258,0.879c-3.404,0-6.373-0.879-8.348-3.188
			c-2.197-2.411-3.191-6.037-3.191-13.398v-30.857h-6.479v-6.369h6.479v-9.01L140.434,142.051z"/>
		<path fill="#CE3428" d="M186.114,195.541c0,4.061,0.111,8.677,0.549,12.078h-7.578l-0.548-5.602h-0.334
			c-2.302,4.065-6.037,6.481-10.648,6.481c-7.03,0-12.523-5.933-12.523-15.157c0-13.399,10.655-19.22,22.626-19.328v-1.646
			c0-7.141-1.868-11.973-8.456-11.973c-3.298,0-6.26,0.992-8.789,2.75l-1.866-5.936c2.306-1.643,7.139-3.515,12.411-3.515
			c10.65,0,15.155,6.921,15.155,18.785v23.062H186.114z M177.879,180.053c-4.396,0-14.611,0.88-14.611,12.414
			c0,7.027,3.517,9.444,6.479,9.444c3.736,0,6.815-2.746,7.8-8.019c0.221-0.987,0.333-2.086,0.333-3.072V180.053z"/>
		<path fill="#CE3428" d="M223.995,206.302c-1.866,1.099-5.05,1.979-8.783,1.979c-11.641,0-19.442-9.333-19.442-26.907
			c0-15.265,7.687-27.679,20.977-27.679c2.854,0,5.929,0.773,7.468,1.651l-1.645,6.917c-1.102-0.553-3.294-1.429-6.042-1.429
			c-8.568,0-12.3,10.105-12.3,20.537c0,12.412,4.722,19.878,12.519,19.878c2.197,0,4.172-0.438,6.046-1.431L223.995,206.302z"/>
		<path fill="#CE3428" d="M239.478,179.176h0.219c0.984-2.089,1.866-4.172,2.854-5.934l10.544-18.776h9.115l-14.06,22.402
			l15.377,30.751h-9.448l-11.528-25.039l-3.073,4.94v20.102h-8.352v-75.999h8.352V179.176z"/>
	</g>
	<path fill="#F1F5F6" stroke="#FFFFFF" stroke-width="3.6258" stroke-miterlimit="10" d="M266.776,264.041
		c0,2.878-2.345,5.216-5.221,5.216H-69.051c-2.887,0-5.223-2.338-5.223-5.216v-38.429c0-2.894,2.336-5.227,5.223-5.227h330.608
		c2.875,0,5.22,2.336,5.22,5.227v38.429H266.776z"/>
	<g>
		<path fill="#6B919F" d="M-33.727,254.814c-0.752,0.343-1.97,0.562-3.471,0.562c-4.689,0-8.092-3.322-8.092-10.488
			c0-8.332,4.724-10.991,8.556-10.991c1.432,0,2.507,0.249,2.969,0.531l-0.607,2.034c-0.572-0.226-1.144-0.441-2.399-0.441
			c-2.579,0-5.621,2.197-5.621,8.646c0,6.451,2.722,8.575,5.693,8.575c1.038,0,1.931-0.217,2.505-0.436L-33.727,254.814z"/>
		<path fill="#6B919F" d="M-25.57,234.081h2.759v19.071h6.763v2.035h-9.521V234.081z"/>
		<path fill="#6B919F" d="M3.283,244.475c0,7.925-3.08,10.965-6.98,10.965c-4.011,0-6.694-3.725-6.694-10.837
			c0-6.982,2.899-10.772,7.086-10.772C0.813,233.831,3.283,237.745,3.283,244.475z M-7.526,244.632c0,4.357,0.966,8.677,4.043,8.677
			c3.08,0,3.905-4.603,3.905-8.737c0-3.946-0.826-8.612-3.94-8.612C-6.561,235.962-7.526,240.345-7.526,244.632z"/>
		<path fill="#6B919F" d="M14.666,234.081v14.156c0,3.788,1.467,5.071,3.257,5.071c2.039,0,3.363-1.374,3.363-5.071v-14.156h2.756
			v13.781c0,5.479-2.579,7.578-6.157,7.578c-3.614,0-5.977-2.071-5.977-7.301v-14.059H14.666z"/>
		<path fill="#6B919F" d="M33.703,234.392c1.042-0.279,2.33-0.403,3.69-0.403c2.542,0,4.33,0.563,5.656,1.596
			c1.861,1.408,3.259,4.132,3.259,8.551c0,4.823-1.363,7.452-2.899,8.926c-1.576,1.532-3.866,2.251-6.659,2.251
			c-1.109,0-2.256-0.062-3.042-0.219v-20.701H33.703z M36.427,253.243c0.392,0.065,0.787,0.065,1.036,0.065
			c3.042,0,5.979-1.939,5.979-9.112c0-5.32-1.861-8.234-5.727-8.234c-0.431,0-0.932,0.032-1.29,0.125v17.156H36.427z"/>
		<path fill="#6B919F" d="M65.422,252.4c0.787,0.468,2.253,0.843,3.435,0.843c2.54,0,4.043-1.435,4.043-3.569
			c0-1.937-1.289-3.127-3.188-4.381c-1.933-1.157-4.546-3.132-4.546-5.857c0-3.196,2.542-5.539,6.373-5.539
			c1.502,0,2.791,0.405,3.366,0.778l-0.646,2.071c-0.611-0.377-1.612-0.724-2.865-0.724c-2.399,0-3.508,1.568-3.508,3.01
			c0,2.094,1.255,2.912,3.547,4.352c2.897,1.785,4.187,3.729,4.187,6.071c0,3.635-2.901,5.921-6.763,5.921
			c-1.647,0-3.368-0.469-4.046-0.906L65.422,252.4z"/>
		<path fill="#6B919F" d="M96.919,244.475c0,7.925-3.08,10.965-6.98,10.965c-4.011,0-6.696-3.725-6.696-10.837
			c0-6.982,2.904-10.772,7.088-10.772C94.447,233.831,96.919,237.745,96.919,244.475z M86.108,244.632
			c0,4.357,0.969,8.677,4.044,8.677c3.081,0,3.902-4.603,3.902-8.737c0-3.946-0.821-8.612-3.933-8.612
			C87.074,235.962,86.108,240.345,86.108,244.632z"/>
		<path fill="#6B919F" d="M105.58,234.081h9.198v2.1h-6.442v7.387h6.016v2.035h-6.016v9.582h-2.754v-21.104H105.58z"/>
		<path fill="#6B919F" d="M126.123,236.239h-4.395v-2.158h11.557v2.158h-4.401v18.948h-2.759v-18.948H126.123z"/>
		<path fill="#6B919F" d="M145.022,255.187l-4.616-21.106h2.824l2.041,10.176c0.539,2.663,0.899,5.015,1.218,7.615h0.106
			c0.327-2.664,0.864-4.95,1.469-7.642l2.222-10.147h2.327l2.258,9.929c0.537,2.505,1.072,4.915,1.394,7.862h0.106
			c0.396-3.038,0.823-5.324,1.254-7.736l2.003-10.053h2.72l-4.688,21.106h-2.72l-2.29-10.271c-0.501-2.224-0.933-4.603-1.253-6.917
			h-0.069c-0.325,2.379-0.756,4.67-1.328,7.013l-2.358,10.176h-2.619V255.187z"/>
		<path fill="#6B919F" d="M172.013,248.864l-1.581,6.325h-2.684l5.516-21.106h3.04l5.372,21.106h-2.727l-1.57-6.325H172.013z
			 M176.985,246.922l-1.248-5.353c-0.357-1.504-0.686-3.259-0.967-4.823h-0.108c-0.288,1.597-0.644,3.415-1.003,4.823l-1.253,5.353
			H176.985z"/>
		<path fill="#6B919F" d="M190.088,234.392c1.145-0.279,2.576-0.403,3.936-0.403c2.398,0,4.19,0.438,5.441,1.502
			c1.179,1.064,1.682,2.473,1.682,4.135c0,2.691-1.429,4.449-3.864,5.448v0.061c1.792,0.468,2.72,1.976,3.223,4.73
			c0.574,2.88,1.038,4.667,1.396,5.319h-2.794c-0.357-0.626-0.825-2.628-1.289-5.196c-0.535-2.914-1.575-3.977-3.933-3.977h-1.079
			v9.173h-2.718V234.392z M192.803,244.135h1.184c2.613,0,4.369-1.692,4.369-4.224c0-2.446-1.145-3.948-4.083-3.98
			c-0.574,0-1.107,0.032-1.47,0.128V244.135z"/>
		<path fill="#6B919F" d="M218.868,245.169h-6.049v7.921h6.869v2.098h-9.627v-21.106h9.198v2.1h-6.44v6.951h6.049V245.169
			L218.868,245.169z"/>
	</g>
</g>
<g>
	<g>
		<path fill="#CECCCB" d="M276.848,203.816c0,2.451-1.968,4.393-4.471,4.393c-2.501,0-4.496-1.941-4.496-4.393
			c0-2.448,1.995-4.364,4.522-4.364C274.882,199.452,276.848,201.368,276.848,203.816z M268.996,203.816
			c0,1.941,1.465,3.487,3.407,3.487c1.892,0.025,3.326-1.546,3.326-3.461c0-1.941-1.435-3.513-3.376-3.513
			C270.464,200.33,268.996,201.901,268.996,203.816z M271.686,206.079h-1.012v-4.364c0.4-0.055,0.96-0.137,1.68-0.137
			c0.825,0,1.196,0.137,1.49,0.347c0.265,0.187,0.451,0.509,0.451,0.932c0,0.533-0.401,0.88-0.903,1.038v0.054
			c0.422,0.133,0.637,0.478,0.771,1.062c0.134,0.669,0.238,0.905,0.32,1.066h-1.064c-0.132-0.161-0.212-0.533-0.347-1.066
			c-0.075-0.449-0.342-0.663-0.901-0.663h-0.48v1.731H271.686z M271.714,203.63h0.479c0.56,0,1.013-0.187,1.013-0.635
			c0-0.403-0.293-0.67-0.932-0.67c-0.267,0-0.453,0.028-0.56,0.055V203.63z"/>
	</g>
</g>
</svg>
