<svg id="Ebene_1" data-name="Ebene 1" xmlns="http://www.w3.org/2000/svg" width="600" height="600" viewBox="0 0 600 600"><defs><style>.cls-1{fill:#354750;}.cls-2{fill:#48addf;}.cls-3{fill:#56beee;}.cls-4{fill:#388bbd;}.cls-5{fill:#409ccb;}.cls-6{fill:#c2e1e1;}.cls-7{fill:#d7f2f2;}.cls-8{fill:#46b0d7;}.cls-9{fill:#58c8f1;}</style></defs><title>docker</title><g id="image"><path id="background" class="cls-1" d="M344.4,221.7h52.5v53.7h26.5a115.9582,115.9582,0,0,0,36.5-6.1,95.7112,95.7112,0,0,0,17.7-8c-7.4-9.6-11.2-21.9-12.3-33.9-1.5-16.4,1.8-37.7,12.9-50.5l5.5-6.4,6.6,5.3c16.5,13.3,30.5,31.9,32.9,53.1,20-5.9,43.4-4.5,60.9,5.7l7.2,4.1-3.8,7.4c-14.8,29-45.9,38-76.3,36.4C465.8,395.6,366.9,449.2,247,449.2c-62,0-118.8-23.2-151.2-78.2l-0.5-.9-4.7-9.6C79.7,336.3,76,309.8,78.5,283.3l0.8-8h44.8V221.6h52.5V169.3H281.5V116.8h62.9V221.7"/><g id="whale"><path id="body" class="cls-2" d="M514.4,241.6c3.5-27.3-16.9-48.9-29.6-59-14.6,16.9-16.9,61.3,6.1,79.8-12.8,11.4-39.8,21.7-67.4,21.7H87.2c-2.7,28.8,2.4,55.4,14,78.2l3.8,7a137.3464,137.3464,0,0,0,8,11.9h0c13.9,0.9,26.5,1.2,38.2,1h0c22.9-.5,41.6-3.2,55.7-8.2a4.0162,4.0162,0,0,1,2.6,7.6c-1.9.7-3.8,1.3-5.9,1.9h0a183.9651,183.9651,0,0,1-38.5,6.3c0.9,0-1,.1-1,0.1-0.5,0-1.2.1-1.7,0.1-6.1.3-12.7,0.4-19.4,0.4-7.4,0-14.6-.1-22.6-0.6l-0.2.1c28,31.5,71.9,50.3,126.7,50.3,116.2,0,214.8-51.5,258.5-167.1,31,3.1,60.8-4.7,74.2-31.2-21.4-12.3-49.2-8.3-65.2-.3"/><path id="highlight" class="cls-3" d="M514.4,241.6c3.5-27.3-16.9-48.9-29.6-59-14.6,16.9-16.9,61.3,6.1,79.8-12.8,11.4-39.8,21.7-67.4,21.7H107.1c-1.4,44.1,15,77.7,44,97.9h0c22.9-.5,41.6-3.2,55.7-8.2a4.0162,4.0162,0,0,1,2.6,7.6c-1.9.7-3.8,1.3-5.9,1.9h0a194.0616,194.0616,0,0,1-39.6,6.6l-0.4-.4c39.5,20.3,96.9,20.3,162.6-5,73.7-28.3,142.4-82.3,190.2-144a8.6275,8.6275,0,0,1-1.9,1.1"/><path id="underwater" class="cls-4" d="M87.8,319.2a135.3708,135.3708,0,0,0,13.3,43.1l3.8,7a137.3463,137.3463,0,0,0,8,11.9c13.9,0.9,26.5,1.2,38.2,1,22.9-.5,41.6-3.2,55.7-8.2a4.0162,4.0162,0,0,1,2.6,7.6c-1.9.7-3.8,1.3-5.9,1.9h0a187.2977,187.2977,0,0,1-39.5,6.4,13.4012,13.4012,0,0,0-2,.1c-6.1.3-12.6,0.6-19.3,0.6-7.4,0-14.8-.1-22.9-0.6,28,31.5,72.1,50.4,127,50.4,99.5,0,186-37.8,236.4-121.2H87.8"/><path id="underwater-highlight" class="cls-5" d="M110.1,319.2c6,27.1,20.3,48.4,41,62.9,22.9-.5,41.6-3.2,55.7-8.2a4.0162,4.0162,0,0,1,2.6,7.6c-1.9.7-3.8,1.3-5.9,1.9h0a190.3854,190.3854,0,0,1-39.8,6.4c39.5,20.3,96.7,20,162.5-5.3,39.8-15.2,78.1-38,112.4-65.5H110.1"/><path id="beard" class="cls-6" d="M261.2,440.1c-31.1-14.7-48.1-34.8-57.6-56.6-11.5,3.3-25.4,5.4-41.5,6.3-6.1.3-12.5,0.5-19.2,0.5-7.8,0-15.8-.2-24.4-0.7C147,418.1,182,440,246.9,440.4c4.9,0,9.6-.1,14.3-0.3"/><path id="beard-highlight" class="cls-7" d="M215.2,403.6a104.8035,104.8035,0,0,1-11.5-20.2c-11.5,3.3-25.5,5.4-41.6,6.3,11,6.1,27,11.7,53.1,13.9"/><g id="eye"><path id="white" class="cls-7" d="M227.9,349.8a12.6,12.6,0,1,1-12.6,12.6,12.6112,12.6112,0,0,1,12.6-12.6"/><path id="pupil" class="cls-1" d="M227.9,353.3a7.9434,7.9434,0,0,1,3.2.6,3.7555,3.7555,0,0,0-1.9,3.1,3.5841,3.5841,0,0,0,3.6,3.6,3.661,3.661,0,0,0,3.2-1.9,10.3228,10.3228,0,0,1,.7,3.4,8.9,8.9,0,1,1-17.8,0,9.0532,9.0532,0,0,1,9-8.8"/></g></g><path id="water" class="cls-1" d="M6,323.7H589.6c-12.7-3.2-40.2-7.6-35.7-24.2-23.1,26.7-78.9,18.8-92.9,5.6-15.6,22.7-106.9,14.1-113.2-3.6-19.7,23-80.4,23-100.1,0-6.4,17.7-97.5,26.3-113.2,3.6-14.1,13.2-69.8,21.1-92.9-5.6,4.6,16.6-22.9,21.1-35.6,24.2"/><g id="containers"><polygon class="cls-8" points="132.8 230.5 178.3 230.5 178.3 276 132.8 276 132.8 230.5"/><rect class="cls-8" x="185.2" y="178.1" width="45.5" height="45.5"/><rect class="cls-9" x="185.2" y="230.5" width="45.5" height="45.5"/><rect class="cls-8" x="237.7" y="230.5" width="45.5" height="45.5"/><rect class="cls-9" x="237.7" y="178.1" width="45.5" height="45.5"/><rect class="cls-9" x="290.2" y="230.5" width="45.5" height="45.5"/><rect class="cls-8" x="290.2" y="178.1" width="45.5" height="45.5"/><rect class="cls-9" x="290.2" y="125.6" width="45.5" height="45.5"/><rect class="cls-8" x="342.7" y="230.5" width="45.5" height="45.5"/><g id="grid1"><polygon class="cls-1" points="346.5 234.3 350.1 234.3 350.1 272.2 346.5 272.2 346.5 234.3"/><polygon class="cls-1" points="353.3 234.3 357 234.3 357 272.2 353.3 272.2 353.3 234.3"/><polygon class="cls-1" points="360.1 234.3 363.9 234.3 363.9 272.2 360.1 272.2 360.1 234.3"/><polygon class="cls-1" points="367 234.3 370.8 234.3 370.8 272.2 367 272.2 367 234.3"/><polygon class="cls-1" points="373.9 234.3 377.7 234.3 377.7 272.2 373.9 272.2 373.9 234.3"/><polyline class="cls-1" points="380.8 234.3 384.4 234.3 384.4 272.2 380.8 272.2 380.8 234.3"/></g><g id="grid2"><rect class="cls-1" x="294" y="129.3" width="3.5" height="37.9"/><rect class="cls-1" x="300.8" y="129.3" width="3.7" height="37.9"/><rect class="cls-1" x="307.6" y="129.3" width="3.7" height="37.9"/><rect class="cls-1" x="314.5" y="129.3" width="3.7" height="37.9"/><rect class="cls-1" x="321.4" y="129.3" width="3.7" height="37.9"/><polyline class="cls-1" points="328.3 129.3 331.9 129.3 331.9 167.3 328.3 167.3 328.3 129.3"/></g><g id="grid3"><rect class="cls-1" x="294" y="181.8" width="3.5" height="37.9"/><rect class="cls-1" x="300.8" y="181.8" width="3.7" height="37.9"/><rect class="cls-1" x="307.6" y="181.8" width="3.7" height="37.9"/><rect class="cls-1" x="314.5" y="181.8" width="3.7" height="37.9"/><rect class="cls-1" x="321.4" y="181.8" width="3.7" height="37.9"/><polyline class="cls-1" points="328.3 181.8 331.9 181.8 331.9 219.8 328.3 219.8 328.3 181.8"/></g><g id="grid4"><polygon class="cls-1" points="294 234.3 297.6 234.3 297.6 272.2 294 272.2 294 234.3"/><polygon class="cls-1" points="300.8 234.3 304.5 234.3 304.5 272.2 300.8 272.2 300.8 234.3"/><polygon class="cls-1" points="307.6 234.3 311.4 234.3 311.4 272.2 307.6 272.2 307.6 234.3"/><polygon class="cls-1" points="314.5 234.3 318.3 234.3 318.3 272.2 314.5 272.2 314.5 234.3"/><polygon class="cls-1" points="321.4 234.3 325.1 234.3 325.1 272.2 321.4 272.2 321.4 234.3"/><polyline class="cls-1" points="328.3 234.3 331.9 234.3 331.9 272.2 328.3 272.2 328.3 234.3"/></g><g id="grid5"><rect class="cls-1" x="241.6" y="181.8" width="3.5" height="37.9"/><rect class="cls-1" x="248.3" y="181.8" width="3.7" height="37.9"/><rect class="cls-1" x="255.1" y="181.8" width="3.7" height="37.9"/><rect class="cls-1" x="262" y="181.8" width="3.7" height="37.9"/><rect class="cls-1" x="269" y="181.8" width="3.7" height="37.9"/><polyline class="cls-1" points="275.9 181.8 279.4 181.8 279.4 219.8 275.9 219.8 275.9 181.8"/></g><g id="grid6"><polygon class="cls-1" points="241.6 234.3 245.1 234.3 245.1 272.2 241.6 272.2 241.6 234.3"/><polygon class="cls-1" points="248.3 234.3 252 234.3 252 272.2 248.3 272.2 248.3 234.3"/><polygon class="cls-1" points="255.1 234.3 258.9 234.3 258.9 272.2 255.1 272.2 255.1 234.3"/><polygon class="cls-1" points="262 234.3 265.8 234.3 265.8 272.2 262 272.2 262 234.3"/><polygon class="cls-1" points="269 234.3 272.7 234.3 272.7 272.2 269 272.2 269 234.3"/><polyline class="cls-1" points="275.9 234.3 279.4 234.3 279.4 272.2 275.9 272.2 275.9 234.3"/></g><g id="grid7"><polygon class="cls-1" points="189.1 234.3 192.6 234.3 192.6 272.2 189.1 272.2 189.1 234.3"/><polygon class="cls-1" points="195.9 234.3 199.6 234.3 199.6 272.2 195.9 272.2 195.9 234.3"/><polygon class="cls-1" points="202.7 234.3 206.5 234.3 206.5 272.2 202.7 272.2 202.7 234.3"/><polygon class="cls-1" points="209.6 234.3 213.4 234.3 213.4 272.2 209.6 272.2 209.6 234.3"/><polygon class="cls-1" points="216.5 234.3 220.2 234.3 220.2 272.2 216.5 272.2 216.5 234.3"/><polyline class="cls-1" points="223.4 234.3 226.9 234.3 226.9 272.2 223.4 272.2 223.4 234.3"/></g><g id="grid8"><rect class="cls-1" x="189.1" y="181.8" width="3.5" height="37.9"/><rect class="cls-1" x="195.9" y="181.8" width="3.7" height="37.9"/><rect class="cls-1" x="202.7" y="181.8" width="3.7" height="37.9"/><rect class="cls-1" x="209.6" y="181.8" width="3.7" height="37.9"/><rect class="cls-1" x="216.5" y="181.8" width="3.7" height="37.9"/><polyline class="cls-1" points="223.4 181.8 226.9 181.8 226.9 219.8 223.4 219.8 223.4 181.8"/></g><g id="grid9"><polygon class="cls-1" points="136.6 234.3 140.2 234.3 140.2 272.2 136.6 272.2 136.6 234.3"/><polygon class="cls-1" points="143.4 234.3 147.1 234.3 147.1 272.2 143.4 272.2 143.4 234.3"/><polygon class="cls-1" points="150.2 234.3 154 234.3 154 272.2 150.2 272.2 150.2 234.3"/><polygon class="cls-1" points="157.1 234.3 160.9 234.3 160.9 272.2 157.1 272.2 157.1 234.3"/><polygon class="cls-1" points="164 234.3 167.7 234.3 167.7 272.2 164 272.2 164 234.3"/><polyline class="cls-1" points="170.9 234.3 174.5 234.3 174.5 272.2 170.9 272.2 170.9 234.3"/></g></g></g></svg>