<svg xmlns="http://www.w3.org/2000/svg" viewBox="0 0 30 35">
	<polygon fill="#FFFFFF" stroke="#FFFFFF" stroke-width="2" stroke-linejoin="round" stroke-miterlimit="10" points="29,14.3 24.5,11.8 24.5,11.8 24.5,11.8 24.5,11.8 24.5,11.8 24.5,11.8 24.5,11.8 28.8,9.3 28.8,3.7 28.8,3.7 28.8,3.7 24.2,1 10.4,9.1 5.8,6.4 1,9.2 1,9.2 1,9.2 1,25.8 5.7,28.6 10.3,25.9 10.3,31.2 15,34 19.8,31.2 19.8,31.2 24.5,28.5 24.5,22.5 29,19.9 "/>
	<polygon fill="none" points="10.4,14.7 15,17.4 10.4,14.7"/>
	<polygon fill="#ED6906" points="29,14.3 24.5,11.8 24.5,17"/>
	<polygon fill="#F49A18" points="28.8,3.7 28.8,3.7 28.8,3.7"/>
	<polygon fill="#F49A18" points="24.5,11.8 28.8,9.3 28.8,3.7 19.8,9"/>
	<rect x="5.4" y="13.3" transform="matrix(0.8645 0.5027 -0.5027 0.8645 7.8028 -2.256)" fill="#F0F0F0" width="5.5" height="0"/>
	<polygon fill="#F0F0F0" points="5.7,17.5 5.7,28.6 10.3,25.9 10.3,20.2"/>
	<polygon fill="#DCDCDC" points="15,17.4 19.8,14.6 19.8,14.6 10.4,9.1 10.4,9.1 5.8,6.4 1,9.2 5.7,12 10.4,14.7"/>
	<polygon fill="#ED6906" points="24.5,11.8 24.5,11.8 24.5,11.8"/>
	<polygon fill="#ED6906" points="19.8,14.6 19.8,14.6 24.5,11.8 24.5,11.8 19.8,9 28.8,3.7 28.8,3.7 24.2,1 10.4,9.1 10.4,9.1"/>
	<polygon fill="#F49A18" points="29,14.3 24.5,17 24.5,11.8 24.5,11.8 24.5,11.8 24.5,11.8 24.5,11.8 19.8,14.6 19.8,14.6 19.8,14.6 19.8,14.6 19.8,31.2 24.5,28.5 24.5,22.5 29,19.9"/>
	<polygon fill="#F0F0F0" points="19.8,14.6 19.8,14.6 15,17.4 15,34 19.8,31.2 19.8,31.2 	"/>
	<polygon fill="#B6B6B6" points="10.4,14.7 5.7,12 1,9.2 1,9.2 1,25.8 5.7,28.6 5.7,17.5 10.3,20.2 10.3,25.9 10.3,31.2 15,34 15,17.4"/>
</svg>
