<?xml version="1.0" standalone="no"?>
<!DOCTYPE svg PUBLIC "-//W3C//DTD SVG 20010904//EN"
 "http://www.w3.org/TR/2001/REC-SVG-20010904/DTD/svg10.dtd">
<svg version="1.0" xmlns="http://www.w3.org/2000/svg"
 width="600.000000pt" height="600.000000pt" viewBox="0 0 600.000000 600.000000"
 preserveAspectRatio="xMidYMid meet">
<metadata>
Created by potrace 1.11, written by Peter Selinger 2001-2013
</metadata>
<g transform="translate(0.000000,600.000000) scale(0.100000,-0.100000)"
fill="#000000" stroke="none">
<path d="M1480 5777 c-128 -71 -132 -74 -225 -136 -451 -304 -801 -700 -1028
-1165 -102 -210 -171 -439 -212 -706 -11 -68 -14 -417 -4 -485 4 -33 11 -82
15 -110 5 -45 35 -182 63 -292 21 -80 103 -289 159 -403 115 -235 230 -400
386 -555 373 -370 847 -547 1256 -470 243 46 488 205 616 400 39 60 90 169
100 215 51 241 34 422 -63 650 -48 113 -151 277 -229 365 -127 143 -205 212
-409 364 -324 241 -441 357 -584 576 -147 227 -205 415 -205 670 0 119 10 200
39 315 65 261 193 517 370 743 43 54 58 77 53 77 -2 0 -46 -24 -98 -53z"/>
<path d="M3340 5814 c-420 -42 -807 -214 -1070 -474 -172 -170 -262 -331 -314
-565 -13 -61 -14 -279 -2 -340 78 -370 341 -614 743 -691 98 -19 320 -25 416
-12 34 4 80 11 102 14 132 18 396 103 570 184 115 53 340 134 406 145 18 3 35
7 38 9 3 2 31 7 61 11 30 4 57 8 61 10 25 16 307 24 419 12 470 -50 880 -391
1153 -958 25 -53 49 -109 53 -123 3 -14 10 -26 15 -26 8 0 4 407 -5 447 -2 12
-7 48 -11 80 -3 32 -8 65 -10 73 -2 8 -7 35 -10 60 -14 102 -100 426 -134 505
-5 11 -26 63 -46 115 -47 120 -144 307 -224 436 -192 304 -450 562 -747 746
-217 134 -524 254 -754 294 -14 2 -47 9 -75 14 -60 11 -137 22 -185 27 -53 5
-410 11 -450 7z"/>
<path d="M4238 3425 c-2 -2 -29 -5 -62 -9 -112 -12 -289 -85 -393 -163 -161
-120 -272 -258 -373 -463 -103 -207 -151 -389 -185 -695 -8 -68 -9 -80 -25
-190 -62 -422 -256 -787 -529 -994 -190 -145 -439 -239 -721 -275 -108 -13
-481 -16 -535 -3 -61 14 -107 18 -101 9 10 -16 181 -113 306 -174 254 -123
502 -203 810 -263 14 -3 45 -7 70 -10 25 -3 54 -8 65 -10 127 -26 633 -26 755
0 14 3 41 8 60 11 19 2 46 7 60 10 14 2 37 7 52 9 70 13 279 79 381 120 193
79 388 194 557 329 91 72 295 275 345 341 17 22 38 49 47 59 53 59 197 283
253 394 59 118 129 308 150 407 35 175 40 223 40 415 -1 191 -15 284 -66 442
-70 215 -210 409 -384 530 -109 76 -274 144 -396 163 -37 6 -177 13 -181 10z"/>
</g>
</svg>
