<svg id="Ebene_1" data-name="Ebene 1" xmlns="http://www.w3.org/2000/svg" width="100mm" height="100mm" viewBox="0 0 283.4646 283.4646"><defs><style>.cls-1{fill:#64635f;}</style></defs><title>flocker</title><polygon class="cls-1" points="57.586 151.968 55.366 112.574 54.685 108.281 12.19 135.877 57.586 151.968"/><path class="cls-1" d="M170.2414,66.383a2.551,2.551,0,0,1,2.1785,4.549,1.9505,1.9505,0,0,1-1.4125.0595l2,3.9838,0.1575,0.29a1.9283,1.9283,0,0,1,.8757-0.95,2.5511,2.5511,0,0,1,2.1789,4.549,1.891,1.891,0,0,1-1.0226.1464l2.0255,3.7341a1.89,1.89,0,0,1,.6173-0.4969,2.5512,2.5512,0,0,1,2.1788,4.5493,1.8355,1.8355,0,0,1-.5348.117l1.8885,3.4809a1.7934,1.7934,0,0,1,.2665-0.2143,2.5509,2.5509,0,0,1,2.1785,4.549c-0.0267.013-.0569,0.0071-0.0839,0.0185l1.8123,3.3415a2.3709,2.3709,0,0,1,2.9357,1.3622,2.4009,2.4009,0,0,1-.58,2.981l1.8937,3.4908a2.4446,2.4446,0,0,1,2.4851,1.4611,2.535,2.535,0,0,1-.2287,2.6987l2.0372,3.7556a2.5668,2.5668,0,0,1,1.9906,1.4782,2.6006,2.6006,0,0,1,.0236,2.235l2.3579,4.3469a2.721,2.721,0,0,1,1.6327,3.01l2.9371,5.4145a2.4412,2.4412,0,0,1,.8427,1.5536l17.4011,32.08L273.6966,28.3022,208.516,51.5376a1.3494,1.3494,0,0,1-.6258,1.4115,1.4164,1.4164,0,0,1-1.6843-.5882l-6.7741,2.4149a2.0177,2.0177,0,0,1,.2248.3159,1.6065,1.6065,0,1,1-2.8647,1.3719,1.8646,1.8646,0,0,1-.0754-0.72l-6.9369,2.4728a2.2467,2.2467,0,0,1,1.0866,1.0852,1.8016,1.8016,0,1,1-3.2127,1.5384,2.1327,2.1327,0,0,1-.0064-1.8634l-19.23,6.8549,0.8516,1.6963A1.971,1.971,0,0,1,170.2414,66.383Zm77.1632,23.0516a1.1884,1.1884,0,1,1-.4031,1.4957A1.1018,1.1018,0,0,1,247.4046,89.4346Zm-3.799-7.9326a1.1884,1.1884,0,1,1-.4031,1.4957A1.1015,1.1015,0,0,1,243.6055,81.502Zm-1.4637,19.956a1.4157,1.4157,0,1,1-.48,1.7815A1.312,1.312,0,0,1,242.1419,101.458Zm-2.3354-27.8889a1.1886,1.1886,0,1,1-.4031,1.4957A1.1018,1.1018,0,0,1,239.8065,73.5691Zm-1.4634,19.956a1.4155,1.4155,0,1,1-.48,1.7818A1.3123,1.3123,0,0,1,238.3432,93.5252Zm-1.4637,19.9563a1.6426,1.6426,0,1,1-.5569,2.0672A1.5226,1.5226,0,0,1,236.8795,113.4815Zm-0.872-47.8449a1.1884,1.1884,0,1,1-.4031,1.4957A1.1018,1.1018,0,0,1,236.0075,65.6366Zm-1.4634,19.956a1.4156,1.4156,0,1,1-.48,1.7814A1.3119,1.3119,0,0,1,234.5441,85.5926Zm-1.4637,19.956a1.6428,1.6428,0,1,1-.5569,2.0672A1.5228,1.5228,0,0,1,233.08,105.5486Zm-1.4634,19.956a1.87,1.87,0,1,1-.6339,2.3533A1.7333,1.7333,0,0,1,231.6171,125.5047Zm0.5913-67.801a1.1886,1.1886,0,1,1-.4031,1.496A1.102,1.102,0,0,1,232.2084,57.7037ZM230.7451,77.66a1.4156,1.4156,0,1,1-.48,1.7814A1.3116,1.3116,0,0,1,230.7451,77.66Zm-1.4637,19.956a1.6428,1.6428,0,1,1-.5569,2.0672A1.5229,1.5229,0,0,1,229.2814,97.616Zm-1.4634,19.956a1.87,1.87,0,1,1-.6339,2.353A1.7334,1.7334,0,0,1,227.818,117.5721Zm-1.4634,19.956a2.0968,2.0968,0,1,1-.711,2.6388A1.9438,1.9438,0,0,1,226.3547,137.5281Zm2.0547-87.757a1.1886,1.1886,0,1,1-.4031,1.4957A1.1018,1.1018,0,0,1,228.4094,49.7711Zm-1.4634,19.956a1.4155,1.4155,0,1,1-.48,1.7818A1.3122,1.3122,0,0,1,226.946,69.7271Zm-1.4637,19.9563a1.6426,1.6426,0,1,1-.5569,2.0672A1.5226,1.5226,0,0,1,225.4823,89.6835ZM224.019,109.64a1.87,1.87,0,1,1-.6339,2.353A1.7334,1.7334,0,0,1,224.019,109.64Zm-1.4634,19.956a2.0968,2.0968,0,1,1-.711,2.6388A1.9432,1.9432,0,0,1,222.5556,129.5956Zm-1.4637,19.956a2.324,2.324,0,1,1-.7877,2.9246A2.1544,2.1544,0,0,1,221.092,149.5516Zm2.055-87.757a1.4156,1.4156,0,1,1-.48,1.7814A1.3119,1.3119,0,0,1,223.147,61.7946Zm-1.4637,19.956a1.6428,1.6428,0,1,1-.5569,2.0672A1.5228,1.5228,0,0,1,221.6833,81.7506Zm-1.4634,19.956a1.87,1.87,0,1,1-.6339,2.353A1.7333,1.7333,0,0,1,220.22,101.7066Zm-1.4634,19.9564a2.0967,2.0967,0,1,1-.711,2.6388A1.9433,1.9433,0,0,1,218.7566,121.663Zm-1.4637,19.956a2.3239,2.3239,0,1,1-.7877,2.9246A2.1542,2.1542,0,0,1,217.2929,141.619Zm2.055-87.757a1.4156,1.4156,0,1,1-.48,1.7814A1.3121,1.3121,0,0,1,219.3479,53.862Zm-1.4637,19.956a1.6428,1.6428,0,1,1-.5569,2.0672A1.5229,1.5229,0,0,1,217.8843,73.818Zm-1.4634,19.956a1.87,1.87,0,1,1-.6339,2.353A1.7334,1.7334,0,0,1,216.4209,93.7741Zm-1.4634,19.956a2.0969,2.0969,0,1,1-.711,2.6388A1.9438,1.9438,0,0,1,214.9576,113.73Zm-1.4637,19.956a2.324,2.324,0,1,1-.7877,2.9246A2.1545,2.1545,0,0,1,213.4939,133.6861Zm0.5913-67.801a1.6428,1.6428,0,1,1-.5569,2.0675A1.5231,1.5231,0,0,1,214.0852,65.8851Zm-1.4634,19.9564a1.87,1.87,0,1,1-.6339,2.353A1.7331,1.7331,0,0,1,212.6219,85.8415Zm-1.4634,19.956a2.0969,2.0969,0,1,1-.711,2.6388A1.9432,1.9432,0,0,1,211.1585,105.7975Zm-1.4637,19.956a2.324,2.324,0,1,1-.7877,2.9246A2.1544,2.1544,0,0,1,209.6948,125.7536Zm0.5913-67.801a1.6428,1.6428,0,1,1-.5569,2.0672A1.5228,1.5228,0,0,1,210.2862,57.9526Zm-1.4634,19.956a1.87,1.87,0,1,1-.6339,2.353A1.7334,1.7334,0,0,1,208.8228,77.9086ZM207.3595,97.865a2.0967,2.0967,0,1,1-.711,2.6388A1.9433,1.9433,0,0,1,207.3595,97.865Zm-1.4637,19.956a2.3239,2.3239,0,1,1-.7877,2.9246A2.1541,2.1541,0,0,1,205.8958,117.821Zm-0.872-47.8449a1.87,1.87,0,1,1-.6339,2.353A1.7334,1.7334,0,0,1,205.0238,69.976ZM203.56,89.9321a2.0969,2.0969,0,1,1-.711,2.6388A1.9435,1.9435,0,0,1,203.56,89.9321Zm-1.4634,19.956a2.3239,2.3239,0,1,1-.788,2.9246A2.154,2.154,0,0,1,202.0971,109.8881Zm-0.8723-47.8446a1.87,1.87,0,1,1-.6339,2.353A1.7331,1.7331,0,0,1,201.2247,62.0435ZM199.7614,82a2.0969,2.0969,0,1,1-.711,2.6388A1.9432,1.9432,0,0,1,199.7614,82Zm-1.4634,19.956a2.324,2.324,0,1,1-.788,2.9246A2.1541,2.1541,0,0,1,198.298,101.9556Zm-2.3357-27.8889a2.0968,2.0968,0,1,1-.711,2.6391A1.9438,1.9438,0,0,1,195.9624,74.0666ZM194.499,94.023a2.3238,2.3238,0,1,1-.788,2.9246A2.1538,2.1538,0,0,1,194.499,94.023Zm-2.3357-27.8889a2.0969,2.0969,0,1,1-.711,2.6388A1.9439,1.9439,0,0,1,192.1633,66.1341ZM190.7,86.09a2.324,2.324,0,1,1-.788,2.9246A2.154,2.154,0,0,1,190.7,86.09Zm-3.799-7.9326a2.324,2.324,0,1,1-.788,2.9246A2.1541,2.1541,0,0,1,186.9009,78.1575Zm-3.799-7.9326a2.3238,2.3238,0,1,1-.788,2.9246A2.1538,2.1538,0,0,1,183.1019,70.225Zm-3.799-7.9329a2.324,2.324,0,1,1-.788,2.9246A2.154,2.154,0,0,1,179.3028,62.2921Z"/><polygon class="cls-1" points="261.444 251.151 69.967 204.565 168.417 65.832 261.444 251.151"/><path class="cls-1" d="M72.4886,200.24a1.982,1.982,0,0,1,2.1864-3.252,1.1735,1.1735,0,0,1,.3024.5164l2.3478-3.308h0l-0.0327.0464,0.03-.0472a1.3734,1.3734,0,0,1-.6475-0.1808,1.9819,1.9819,0,0,1,2.1864-3.252,1.2231,1.2231,0,0,1,.3.488l2.0732-3.32a1.421,1.421,0,0,1-.3738-0.1413,1.9819,1.9819,0,0,1,2.1864-3.252,1.3927,1.3927,0,0,1,.1483.2529l1.9831-3.1762a1.4035,1.4035,0,0,1-.1325-0.05,1.982,1.982,0,0,1,2.1867-3.252l0.0017,0.0049,1.9321-3.0894a1.8276,1.8276,0,0,1-.2386-2.4543,1.86,1.86,0,0,1,2.2554-.7753l2.0246-3.2423a1.8193,1.8193,0,0,1-.0944-2.2077,1.92,1.92,0,0,1,2.0138-.8666l2.1218-3.3978a1.8364,1.8364,0,0,1,.05-1.9609,1.9905,1.9905,0,0,1,1.7468-.9163l2.2444-3.5944a1.9048,1.9048,0,0,1,.1945-1.7146,2.0325,2.0325,0,0,1,1.434-.8933l2.4127-3.8639a2.0772,2.0772,0,0,1,.3389-1.468,2.1171,2.1171,0,0,1,1.0983-.8337l2.8935-4.634a1.976,1.976,0,0,1,.1936-0.7576,2.1565,2.1565,0,0,1,.67-0.6245l9.0005-14.4139-5.3525-1.6242a1.9122,1.9122,0,0,1-.3238,1.2688,1.5365,1.5365,0,1,1-2.5211-1.695,1.7389,1.7389,0,0,1,.3652-0.27L88.2287,117.7a1.1819,1.1819,0,0,1-.08.3132,1.1193,1.1193,0,0,1-1.5171.4186,1.0332,1.0332,0,0,1-.2638-1.2542l-31.6832-8.8966,7.224,45.5141a0.95,0.95,0,0,1,.9412.0074,1.1188,1.1188,0,0,1,.1851,1.5627,1.2293,1.2293,0,0,1-.7944.5222l1.5922,10.0311a1.46,1.46,0,0,1,.2132-0.8342,1.2038,1.2038,0,1,1,.2147,1.8135,1.0676,1.0676,0,0,1-.3737-0.6385l6.08,38.3062,2.972-4.188A1.2679,1.2679,0,0,1,72.4886,200.24Zm34.6536-69.4565a1.5365,1.5365,0,1,1,.2742,2.3146A1.6581,1.6581,0,0,1,107.1421,130.7834Zm-4.1857,6.2253a1.5365,1.5365,0,1,1,.2742,2.3146A1.6581,1.6581,0,0,1,102.9565,137.0087Zm-2.7129-10.8635a1.37,1.37,0,1,1,.2446,2.0641A1.4783,1.4783,0,0,1,100.2435,126.1452ZM98.7711,143.234a1.5365,1.5365,0,1,1,.2739,2.3146A1.6577,1.6577,0,0,1,98.7711,143.234ZM96.0582,132.37a1.37,1.37,0,1,1,.2443,2.0641A1.4782,1.4782,0,0,1,96.0582,132.37Zm-1.4727,17.0888a1.5365,1.5365,0,1,1,.2739,2.3146A1.6577,1.6577,0,0,1,94.5855,149.4593Zm-1.2406-27.9524A1.2037,1.2037,0,1,1,93.56,123.32,1.2985,1.2985,0,0,1,93.3449,121.5069Zm-1.4724,17.0888a1.37,1.37,0,1,1,.2443,2.0641A1.4782,1.4782,0,0,1,91.8725,138.5957ZM90.4,155.6845a1.5365,1.5365,0,1,1,.2742,2.3146A1.6578,1.6578,0,0,1,90.4,155.6845Zm-1.24-27.9523a1.2037,1.2037,0,1,1,.2147,1.8132A1.2987,1.2987,0,0,1,89.16,127.7322ZM87.6869,144.821a1.37,1.37,0,1,1,.2443,2.0641A1.4779,1.4779,0,0,1,87.6869,144.821ZM86.2142,161.91a1.5365,1.5365,0,1,1,.2742,2.3146A1.6578,1.6578,0,0,1,86.2142,161.91Zm-21.98-23.8175a0.871,0.871,0,1,1-.1552-1.3121A0.9392,0.9392,0,0,1,64.2345,138.0923Zm20.7395-4.1348a1.2037,1.2037,0,1,1,.2147,1.8132A1.2987,1.2987,0,0,1,84.974,133.9575Zm-1.4727,17.0888a1.37,1.37,0,1,1,.2443,2.0641A1.4779,1.4779,0,0,1,83.5012,151.0463Zm-1.4727,17.0888a1.5365,1.5365,0,1,1,.2742,2.3149A1.6581,1.6581,0,0,1,82.0285,168.1351Zm0.2325-45.0411a1.0372,1.0372,0,1,1,.1848,1.5627A1.1189,1.1189,0,0,1,82.261,123.0939Zm-1.4727,17.0888a1.2037,1.2037,0,1,1,.2147,1.8132A1.2987,1.2987,0,0,1,80.7883,140.1827Zm-1.4727,17.0888a1.37,1.37,0,1,1,.2446,2.0641A1.4779,1.4779,0,0,1,79.3156,157.2716ZM77.8432,174.36a1.5364,1.5364,0,1,1,.2739,2.3149A1.6577,1.6577,0,0,1,77.8432,174.36Zm0.2322-45.0412a1.0373,1.0373,0,1,1,.1851,1.5627A1.1188,1.1188,0,0,1,78.0754,129.3192ZM76.6026,146.408a1.2037,1.2037,0,1,1,.2147,1.8132A1.2987,1.2987,0,0,1,76.6026,146.408ZM75.13,163.4968a1.37,1.37,0,1,1,.2446,2.0641A1.4782,1.4782,0,0,1,75.13,163.4968Zm0.7745,16.4692a1.7885,1.7885,0,1,1-2.2469.62A1.6581,1.6581,0,0,1,75.9044,179.966Zm-0.542-61.51a0.8709,0.8709,0,1,1,.1553,1.3118A0.9393,0.9393,0,0,1,75.3624,118.4557ZM73.89,135.5445a1.0373,1.0373,0,1,1,.1851,1.5627A1.1191,1.1191,0,0,1,73.89,135.5445ZM72.417,152.6333a1.2037,1.2037,0,1,1,.2147,1.8132A1.2988,1.2988,0,0,1,72.417,152.6333Zm-1.4724,17.0888a1.37,1.37,0,1,1,.2443,2.0641A1.4778,1.4778,0,0,1,70.9446,169.7221Zm0.2322-45.0412a0.8709,0.8709,0,1,1,.1553,1.3118A0.94,0.94,0,0,1,71.1768,124.6809Zm-3.9562,24.4585a1.0374,1.0374,0,1,1-.1851-1.5627A1.1194,1.1194,0,0,1,67.2206,149.1395Zm1.2-17.2724a0.871,0.871,0,1,1-.1552-1.3121A0.9395,0.9395,0,0,1,68.42,131.867Zm0.5867,45.592a1.37,1.37,0,1,1-.2443-2.0641A1.4782,1.4782,0,0,1,69.0068,177.4591Zm1.2-17.2724a1.2036,1.2036,0,1,1-.2147-1.8135A1.299,1.299,0,0,1,70.2064,160.1866Zm1.2-17.2724a1.0374,1.0374,0,1,1-.1851-1.5627A1.1195,1.1195,0,0,1,71.4062,142.9142Zm0.5867,45.592a1.5366,1.5366,0,1,1-.2742-2.3149A1.6581,1.6581,0,0,1,71.993,188.5062Z"/><polygon class="cls-1" points="81.051 188.945 81.715 188.011 81.715 188.011 81.051 188.945"/></svg>