<svg xmlns="http://www.w3.org/2000/svg" viewBox="0 0 35 38">
	<polygon fill="#FFFFFF" stroke="#FFFFFF" stroke-width="2" stroke-linejoin="round" stroke-miterlimit="10" points="29.3,6.5 24.5,9.3 24.5,3.7 24.5,3.7 24.5,3.7 19.8,1 5.8,9.2 1,12 1,12 1,12 1,28.7 5.8,31.5 5.8,31.5 10.5,28.8 10.5,34.2 15.2,37 20,34.2 20,34.2 34,26 34,9.2 "/>
	<polygon fill="none" points="10.6,17.5 15.2,20.2 10.6,17.5"/>
	<polygon fill="none" points="24.8,14.6 34,9.2 24.8,14.6"/>
	<polygon fill="none" points="20,17.4 20,17.4 20,17.4 20,17.4 20,17.4"/>
	<polygon fill="#F49A18" points="20.1,11.9 24.5,9.3 24.5,3.7 15.3,9.1"/>
	<polygon fill="#F49A18" points="24.5,3.7 24.5,3.7 24.5,3.7"/>
	<polygon fill="#A04816" points="29.2,17.7 24.5,20.4 29.2,23.2"/>
	<polygon fill="#ED6906" points="29.2,23.2 29.2,23.2 24.5,20.4 20,23 20,28.6"/>
	<polygon fill="#F0F0F0" points="5.8,20.4 5.8,31.5 10.5,28.8 10.5,23.1"/>
	<rect x="5.4" y="16.1" transform="matrix(0.8654 0.5011 -0.5011 0.8654 9.1934 -1.9263)" fill="#F0F0F0" width="5.5" height="0"/>
	<polygon fill="#DCDCDC" points="20,17.4 20,17.4 20,17.4"/>
	<polygon fill="#DCDCDC" points="15.2,20.2 20,17.4 5.8,9.2 1,12 5.8,14.8 10.6,17.5"/>
	<polygon fill="#ED6906" points="20,17.4 20,17.4 20,17.4 20,17.4 20,17.4 24.8,14.6 24.8,14.6 34,9.2 29.3,6.5 24.5,9.3 20.1,11.9 15.3,9.1 24.5,3.7 24.5,3.7 19.8,1 5.8,9.2 20,17.4"/>
	<polygon fill="#F49A18" points="34,9.2 24.8,14.6 20,17.4 20,17.4 20,23 24.5,20.4 29.2,17.7 29.2,23.2 29.2,23.2 20,28.6 20,34.2 34,26"/>
	<polygon fill="#B6B6B6" points="15.2,20.2 15.2,20.2 10.6,17.5 5.8,14.8 1,12 1,12 1,28.7 5.8,31.5 5.8,20.4 5.8,20.4 10.5,23.1 10.5,28.8 10.5,34.2 15.2,37"/>
	<polygon fill="#F0F0F0" points="20,28.6 20,23 20,17.4 20,17.4 20,17.4 20,17.4 20,17.4 15.2,20.2 15.2,20.2 15.2,37 20,34.2 20,34.2"/>
</svg>
