<?xml version="1.0" encoding="UTF-8" standalone="no"?>
<svg
   xmlns:xhtml="http://www.w3.org/1999/xhtml"
   xmlns:dc="http://purl.org/dc/elements/1.1/"
   xmlns:cc="http://creativecommons.org/ns#"
   xmlns:rdf="http://www.w3.org/1999/02/22-rdf-syntax-ns#"
   xmlns:svg="http://www.w3.org/2000/svg"
   xmlns="http://www.w3.org/2000/svg"
   class="nicermediapages-SVG hovered"
   id="svg3730"
   viewBox="-1.4679 -1.4679 106.99842 16.310501"
   height="116.98473"
   width="768.10095"
   version="1.0">
  <metadata
     id="metadata13">
    <rdf:RDF>
      <cc:Work
         rdf:about="">
        <dc:format>image/svg+xml</dc:format>
        <dc:type
           rdf:resource="http://purl.org/dc/dcmitype/StillImage" />
        <dc:title></dc:title>
      </cc:Work>
    </rdf:RDF>
  </metadata>
  <defs
     id="defs3732" />
  <path
     style="fill:#717074;fill-opacity:1;fill-rule:nonzero;stroke:none"
     id="path2946"
     d="m 44.475301,13.648752 -4.689,-13.05665204 c -0.061,-0.180625 -0.149875,-0.4185 -0.149875,-0.627375 0,-0.5665 0.4785,-1.10362496 1.163125,-1.10362496 0.598125,0 0.98775,0.38774996 1.167,0.95412496 L 45.850801,11.06575 49.763426,-0.21602504 c 0.178125,-0.535125 0.538,-0.92287496 1.13275,-0.92287496 l 0.120625,0 c 0.628875,0 1.017125,0.38774996 1.195375,0.92287496 l 3.88175,11.28177504 3.94625,-11.30915004 c 0.1505,-0.479 0.476125,-0.89549996 1.105,-0.89549996 0.65675,0 1.13525,0.50537496 1.13525,1.07424996 0,0.209 -0.09025,0.445875 -0.148875,0.6275 L 57.412301,13.648752 c -0.24175,0.683594 -0.71775,1.04248 -1.256375,1.04248 l -0.08888,0 c -0.598125,0 -1.047375,-0.358886 -1.25725,-1.04248 L 50.959676,2.5545125 47.073926,13.648752 c -0.2085,0.683594 -0.65775,1.04248 -1.253375,1.04248 l -0.0625,0 c -0.5665,0 -1.0435,-0.358886 -1.28275,-1.04248" />
  <path
     style="fill:#717074;fill-opacity:1;fill-rule:nonzero;stroke:none"
     id="path2948"
     d="M 78.654926,-6.5003777e-4 C 78.654926,-0.63052504 79.162801,-1.16865 79.790176,-1.16865 c 0.66025,0 1.168,0.50837496 1.168,1.16799996223 l 0,2.64988753777 c 1.13675,-2.57426254 3.65625,-3.7881375 5.32625,-3.7881375 0.690875,0 1.140125,0.50837496 1.140125,1.16612496 0,0.628875 -0.419,1.07562504 -1.0205,1.16687504 -2.99325,0.359 -5.445875,2.603575 -5.445875,7.064025 l 0,5.245612 c 0,0.628414 -0.4785,1.165523 -1.13625,1.165523 -0.659125,0 -1.167,-0.510254 -1.167,-1.165523 l 0,-13.50438703777" />
  <path
     style="fill:#717074;fill-opacity:1;fill-rule:nonzero;stroke:none"
     id="path2950"
     d="m 99.301926,5.9588125 c -0.234375,-2.784675 -1.82025,-5.21146254 -4.838875,-5.21146254 -2.639125,0 -4.63375,2.21927504 -4.921875,5.21146254 l 9.76075,0 z m -4.48625,8.8569325 c -4.163625,0 -7.5645,-3.229983 -7.5645,-7.9672825 l 0,-0.062012 c 0,-4.4101625 3.078625,-7.96535 7.2715,-7.96535 4.483875,0 7.037624,3.699725 7.037624,7.7592875 0,0.62305 -0.503,1.067875 -1.05712,1.067875 l -10.962004,0 c 0.319875,3.3149375 2.634375,5.1816375 5.3345,5.1816375 1.876,0 3.252,-0.7412 4.36775,-1.777338 0.17425,-0.146487 0.38075,-0.265137 0.6455,-0.265137 0.555624,0 0.996004,0.444337 0.996004,0.979 0,0.265137 -0.11563,0.532225 -0.3525,0.737312 -1.435504,1.391598 -3.137254,2.312008 -5.716754,2.312008" />
  <path
     style="fill:#717074;fill-opacity:1;fill-rule:nonzero;stroke:none"
     id="path2952"
     d="m 73.689176,8.826975 0,-1.4917 c -1.13525,-0.328125 -2.65875,-0.6586875 -4.536125,-0.6586875 -2.890625,0 -4.504375,1.2558625 -4.504375,3.1928625 l 0,0.060062 c 0,1.9384745 1.7895,3.0722625 3.879375,3.0722625 2.832,0 5.161125,-1.73095 5.161125,-4.1748 m -11.36725,1.19385 0,-0.061038 c 0,-3.2514625 2.685625,-4.9829125 6.591875,-4.9829125 1.970125,0 3.3715,0.2685625 4.747,0.6582 l 0,-0.5390625 c 0,-2.7729125 -1.705,-4.20653754 -4.595625,-4.20653754 -1.55275,0 -2.456125,0.19775004 -3.591375,0.70312504 -0.147875,0.0605 -0.297875,0.090875 -0.415,0.090875 -0.537125,0 -1.015625,-0.44875 -1.015625,-0.98487504 0,-0.476125 0.2075,-0.7705 0.627375,-0.956625 1.518625,-0.659125 2.664625,-0.87837496 4.632375,-0.87837496 2.17675,0 3.847625,0.56449996 4.9795,1.69924996 1.044875,1.04437504 1.583,2.53610004 1.583,4.50485004 l 0,8.512687 c 0,0.654303 -0.477,1.132818 -1.106875,1.132818 -0.653375,0 -1.09775,-0.478515 -1.09775,-1.074219 l 0,-1.472161 c -1.075125,1.4038 -2.867125,2.656244 -5.577125,2.656244 -2.86625,0 -5.76175,-1.640619 -5.76175,-4.802244" />
  <path
     style="fill:#717074;fill-opacity:1;fill-rule:nonzero;stroke:none"
     id="path2954"
     d="M 2.6818384,-0.17052504 C 2.1764634,-1.278525 0.92793839,-1.7804 -0.23808661,-1.2614 -1.4050741,-0.74290004 -1.8347616,0.55109996 -1.3074179,1.660475 l 4.8950188,10.63965 c 0.7705125,1.668451 1.5820375,2.542475 3.1044875,2.542475 1.6269625,0 2.3364375,-0.952149 3.105475,-2.542475 0,0 4.2699876,-9.2978625 4.3124876,-9.39405 0.044,-0.099125 0.180625,-0.3994125 0.61525,-0.396975 0.367625,0.00391 0.67625,0.2963875 0.67625,0.688475 l 0,9.09375 c 0,1.401372 0.777875,2.551275 2.273,2.551275 1.494125,0 2.30225,-1.149903 2.30225,-2.551275 l 0,-7.43945 c 0,-1.43505 1.02775,-2.365725 2.429125,-2.365725 1.401375,0 2.334,0.9629 2.334,2.365725 l 0,7.43945 c 0,1.401372 0.78025,2.551275 2.273,2.551275 1.494125,0 2.306125,-1.149903 2.306125,-2.551275 l 0,-7.43945 c 0,-1.43505 1.023875,-2.365725 2.42675,-2.365725 1.398875,0 2.335,0.9629 2.335,2.365725 l 0,7.43945 c 0,1.401372 0.77875,2.551275 2.272875,2.551275 1.49325,0 2.30375,-1.149903 2.30375,-2.551275 l 0,-8.467275 c 0,-3.11232504 -2.5015,-5.29195 -5.51275,-5.29195 -3.00775,0 -4.8915,2.08099996 -4.8915,2.08099996 -1.001,-1.298375 -2.381375,-2.07912496 -4.716875,-2.07912496 -2.464375,0 -4.6215,2.07912496 -4.6215,2.07912496 -1.002,-1.298375 -2.707625,-2.07912496 -4.119625,-2.07912496 -2.184125,0 -3.918513,0.96099996 -4.9771001,3.380375 l -3.1259875,7.3691625 -4.01025,-9.45403754" />
  <path
     style="fill:#717074;fill-opacity:1;fill-rule:nonzero;stroke:none"
     id="path2956"
     d="m 105.19555,0.73859996 0,-0.005375 c 0,-0.856 -0.66162,-1.558125 -1.543,-1.558125 -0.874,0 -1.54537,0.713875 -1.54537,1.5635 l 0,0.00975 c 0,0.85450004 0.664,1.55662504 1.54537,1.55662504 0.87163,0 1.543,-0.713875 1.543,-1.56637504 m -3.44975,0.01275 0,-0.01275 c 0,-1.041 0.84475,-1.91749996 1.90675,-1.91749996 1.07663,0 1.90913,0.86774996 1.90913,1.90924996 l 0,0.00825 c 0,1.04487504 -0.84225,1.92138754 -1.90913,1.92138754 -1.07662,0 -1.90675,-0.8647625 -1.90675,-1.90863754" />
  <path
     style="fill:#717074;fill-opacity:1;fill-rule:nonzero;stroke:none"
     id="path2958"
     d="m 103.74293,0.67759996 c 0.19775,0 0.30762,-0.1035 0.30762,-0.26125 l 0,-0.005875 c 0,-0.172875 -0.11725,-0.264625 -0.315,-0.264625 l -0.40525,0 0,0.53175 0.41263,0 z m -0.82038,-0.693875 c 0,-0.11375 0.0904,-0.204125 0.20513,-0.204125 l 0.63712,0 c 0.23925,0 0.42488,0.067875 0.53963,0.1895 0.105,0.102 0.16112,0.249 0.16112,0.420375 l 0,0.006375 c 0,0.291 -0.1465,0.46875 -0.36862,0.562 L 104.37768,1.3016 c 0.039,0.04975 0.0659,0.09275 0.0659,0.15475 0,0.11275 -0.0953,0.1875 -0.19287,0.1875 -0.0904,0 -0.15138,-0.045875 -0.20013,-0.1045 l -0.39562,-0.501 -0.32463,0 0,0.402875 c 0,0.11275 -0.0879,0.202625 -0.20262,0.202625 -0.11475,0 -0.20513,-0.089875 -0.20513,-0.202625 l 0,-1.45750004" />
</svg>
